<mxfile host="app.diagrams.net" modified="2023-07-19T21:29:34.749Z" agent="Mozilla/5.0 (Windows NT 10.0; Win64; x64) AppleWebKit/537.36 (KHTML, like Gecko) Chrome/114.0.0.0 Safari/537.36 Edg/114.0.1823.82" etag="phZYSCW9GyOBHtDgqbeu" version="21.6.3" type="device">
  <diagram name="Page-1" id="9361dd3d-8414-5efd-6122-117bd74ce7a7">
    <mxGraphModel dx="739" dy="508" grid="1" gridSize="10" guides="1" tooltips="1" connect="1" arrows="1" fold="1" page="0" pageScale="1.5" pageWidth="826" pageHeight="1169" background="none" math="0" shadow="0">
      <root>
        <mxCell id="0" />
        <mxCell id="1" parent="0" />
        <mxCell id="2" value="" style="fillColor=#CC4125;strokeColor=#660000" parent="1" vertex="1">
          <mxGeometry x="321" y="150" width="10" height="130" as="geometry" />
        </mxCell>
        <mxCell id="3" value="validate(token)" style="edgeStyle=none;verticalLabelPosition=top;verticalAlign=bottom;labelPosition=left;align=right" parent="1" edge="1">
          <mxGeometry width="100" height="100" as="geometry">
            <mxPoint x="200" y="156" as="sourcePoint" />
            <mxPoint x="325" y="156.5" as="targetPoint" />
            <Array as="points" />
            <mxPoint x="16" y="-7" as="offset" />
          </mxGeometry>
        </mxCell>
        <mxCell id="4" value="PollPlanet UI" style="shadow=1;fillColor=#A2C4C9;strokeColor=none" parent="1" vertex="1">
          <mxGeometry x="273.5" y="60" width="105" height="50" as="geometry" />
        </mxCell>
        <mxCell id="6" value="" style="fillColor=#CC4125;strokeColor=#660000" parent="1" vertex="1">
          <mxGeometry x="460.5" y="180" width="10" height="100" as="geometry" />
        </mxCell>
        <mxCell id="7" value="Node server" style="shadow=1;fillColor=#A2C4C9;strokeColor=none" parent="1" vertex="1">
          <mxGeometry x="414" y="60" width="105" height="50" as="geometry" />
        </mxCell>
        <mxCell id="8" value="" style="edgeStyle=none;endArrow=none;dashed=1" parent="1" source="7" target="6" edge="1">
          <mxGeometry x="272.3350694444445" y="165" width="100" height="100" as="geometry">
            <mxPoint x="347.2588734567901" y="110" as="sourcePoint" />
            <mxPoint x="347.5761959876544" y="165" as="targetPoint" />
          </mxGeometry>
        </mxCell>
        <mxCell id="9" value="validate(token)" style="edgeStyle=none;verticalLabelPosition=top;verticalAlign=bottom" parent="1" edge="1">
          <mxGeometry x="220" y="92" width="100" height="100" as="geometry">
            <mxPoint x="331" y="179.5" as="sourcePoint" />
            <mxPoint x="461" y="179.5" as="targetPoint" />
          </mxGeometry>
        </mxCell>
        <mxCell id="21" value="" style="fillColor=#CC4125;strokeColor=#660000" parent="1" vertex="1">
          <mxGeometry x="670" y="210" width="10" height="90" as="geometry" />
        </mxCell>
        <mxCell id="22" value="Database" style="shadow=1;fillColor=#A2C4C9;strokeColor=none" parent="1" vertex="1">
          <mxGeometry x="622.5" y="60" width="105" height="50" as="geometry" />
        </mxCell>
        <mxCell id="23" value="" style="edgeStyle=none;endArrow=none;dashed=1" parent="1" source="FPgmOX6SYPWmQ99vwZZl-116" edge="1">
          <mxGeometry x="614.4878472222224" y="174.99999999999997" width="100" height="100" as="geometry">
            <mxPoint x="674.6527777777778" y="110" as="sourcePoint" />
            <mxPoint x="675" y="570" as="targetPoint" />
          </mxGeometry>
        </mxCell>
        <mxCell id="33" value="" style="edgeStyle=elbowEdgeStyle;elbow=horizontal;endArrow=none;dashed=1" parent="1" source="4" target="2" edge="1">
          <mxGeometry x="230.00000000000003" y="310" width="100" height="100" as="geometry">
            <mxPoint x="230.00000000000003" y="410" as="sourcePoint" />
            <mxPoint x="330" y="310" as="targetPoint" />
          </mxGeometry>
        </mxCell>
        <mxCell id="44" value="" style="edgeStyle=none;dashed=1;endArrow=none" parent="1" source="2" edge="1">
          <mxGeometry x="50" y="300" width="100" height="100" as="geometry">
            <mxPoint x="171" y="400" as="sourcePoint" />
            <mxPoint x="326" y="580" as="targetPoint" />
          </mxGeometry>
        </mxCell>
        <mxCell id="52" value="" style="edgeStyle=none;endArrow=none;dashed=1" parent="1" source="FPgmOX6SYPWmQ99vwZZl-114" edge="1">
          <mxGeometry x="376.5711805555559" y="339.6971450617284" width="100" height="100" as="geometry">
            <mxPoint x="465.608695652174" y="280" as="sourcePoint" />
            <mxPoint x="466" y="580" as="targetPoint" />
          </mxGeometry>
        </mxCell>
        <mxCell id="71" value="Participant fill out quesionsnaire" style="rounded=1;fontStyle=1;fillColor=#FFD966;strokeColor=none" parent="1" vertex="1">
          <mxGeometry x="50" y="20" width="200" height="30" as="geometry" />
        </mxCell>
        <mxCell id="FPgmOX6SYPWmQ99vwZZl-90" value="" style="edgeStyle=elbowEdgeStyle;elbow=horizontal;endArrow=none;dashed=1;" parent="1" edge="1">
          <mxGeometry x="230.00000000000003" y="310" width="100" height="100" as="geometry">
            <mxPoint x="190" y="570" as="sourcePoint" />
            <mxPoint x="197.33333333333337" y="110.48574686430982" as="targetPoint" />
            <Array as="points">
              <mxPoint x="197" y="383" />
            </Array>
          </mxGeometry>
        </mxCell>
        <mxCell id="FPgmOX6SYPWmQ99vwZZl-91" value="Participent" style="shape=umlActor;verticalLabelPosition=bottom;verticalAlign=top;html=1;outlineConnect=0;" parent="1" vertex="1">
          <mxGeometry x="183" y="59" width="30" height="31" as="geometry" />
        </mxCell>
        <mxCell id="FPgmOX6SYPWmQ99vwZZl-94" value="Alt" style="shape=umlFrame;whiteSpace=wrap;html=1;pointerEvents=0;" parent="1" vertex="1">
          <mxGeometry x="183" y="312" width="517" height="134.09" as="geometry" />
        </mxCell>
        <mxCell id="FPgmOX6SYPWmQ99vwZZl-95" value="validate(token)" style="edgeStyle=none;verticalLabelPosition=top;verticalAlign=bottom;exitX=1.017;exitY=0.115;exitDx=0;exitDy=0;exitPerimeter=0;" parent="1" edge="1">
          <mxGeometry width="100" height="100" as="geometry">
            <mxPoint x="470.6700000000001" y="220.5" as="sourcePoint" />
            <mxPoint x="674" y="218.5" as="targetPoint" />
            <mxPoint as="offset" />
          </mxGeometry>
        </mxCell>
        <mxCell id="FPgmOX6SYPWmQ99vwZZl-96" value="status=enter:status" style="html=1;verticalAlign=bottom;endArrow=open;dashed=1;endSize=8;edgeStyle=elbowEdgeStyle;elbow=vertical;curved=0;rounded=0;" parent="1" edge="1">
          <mxGeometry relative="1" as="geometry">
            <mxPoint x="670" y="237" as="sourcePoint" />
            <mxPoint x="468" y="237" as="targetPoint" />
          </mxGeometry>
        </mxCell>
        <mxCell id="FPgmOX6SYPWmQ99vwZZl-97" value="status=enter: status" style="html=1;verticalAlign=bottom;endArrow=open;dashed=1;endSize=8;edgeStyle=elbowEdgeStyle;elbow=vertical;curved=0;rounded=0;" parent="1" edge="1">
          <mxGeometry x="-0.0051" relative="1" as="geometry">
            <mxPoint x="460" y="232" as="sourcePoint" />
            <mxPoint x="330" y="232" as="targetPoint" />
            <mxPoint as="offset" />
          </mxGeometry>
        </mxCell>
        <mxCell id="FPgmOX6SYPWmQ99vwZZl-98" value="status=enter:status" style="html=1;verticalAlign=bottom;endArrow=open;dashed=1;endSize=8;edgeStyle=elbowEdgeStyle;elbow=vertical;curved=0;rounded=0;" parent="1" edge="1">
          <mxGeometry relative="1" as="geometry">
            <mxPoint x="320" y="232" as="sourcePoint" />
            <mxPoint x="200" y="232" as="targetPoint" />
            <mxPoint as="offset" />
          </mxGeometry>
        </mxCell>
        <mxCell id="FPgmOX6SYPWmQ99vwZZl-100" value="fill out questions and submit" style="edgeStyle=none;verticalLabelPosition=top;verticalAlign=bottom;labelPosition=left;align=right" parent="1" edge="1">
          <mxGeometry width="100" height="100" as="geometry">
            <mxPoint x="202" y="259" as="sourcePoint" />
            <mxPoint x="327" y="259.5" as="targetPoint" />
            <Array as="points" />
            <mxPoint x="56" y="-5" as="offset" />
          </mxGeometry>
        </mxCell>
        <mxCell id="FPgmOX6SYPWmQ99vwZZl-101" value="submit answer to server" style="edgeStyle=none;verticalLabelPosition=top;verticalAlign=bottom" parent="1" edge="1">
          <mxGeometry width="100" height="100" as="geometry">
            <mxPoint x="332" y="266.5" as="sourcePoint" />
            <mxPoint x="462" y="266.5" as="targetPoint" />
            <mxPoint as="offset" />
          </mxGeometry>
        </mxCell>
        <mxCell id="FPgmOX6SYPWmQ99vwZZl-102" value="insert answer to DB" style="edgeStyle=none;verticalLabelPosition=top;verticalAlign=bottom" parent="1" edge="1">
          <mxGeometry width="100" height="100" as="geometry">
            <mxPoint x="468" y="276.5" as="sourcePoint" />
            <mxPoint x="676" y="277" as="targetPoint" />
            <mxPoint as="offset" />
          </mxGeometry>
        </mxCell>
        <mxCell id="FPgmOX6SYPWmQ99vwZZl-104" value="" style="html=1;points=[];perimeter=orthogonalPerimeter;outlineConnect=0;targetShapes=umlLifeline;portConstraint=eastwest;newEdgeStyle={&quot;edgeStyle&quot;:&quot;elbowEdgeStyle&quot;,&quot;elbow&quot;:&quot;vertical&quot;,&quot;curved&quot;:0,&quot;rounded&quot;:0};" parent="1" vertex="1">
          <mxGeometry x="676" y="215" width="10" height="40" as="geometry" />
        </mxCell>
        <mxCell id="FPgmOX6SYPWmQ99vwZZl-105" value="check token in DB?" style="html=1;align=left;spacingLeft=2;endArrow=block;rounded=0;edgeStyle=orthogonalEdgeStyle;curved=0;rounded=0;" parent="1" edge="1">
          <mxGeometry relative="1" as="geometry">
            <mxPoint x="681" y="216" as="sourcePoint" />
            <Array as="points">
              <mxPoint x="711" y="246" />
            </Array>
            <mxPoint x="686" y="246" as="targetPoint" />
            <mxPoint as="offset" />
          </mxGeometry>
        </mxCell>
        <mxCell id="FPgmOX6SYPWmQ99vwZZl-106" value="" style="endArrow=none;startArrow=none;endFill=0;startFill=0;endSize=8;html=1;verticalAlign=bottom;dashed=1;labelBackgroundColor=none;dashPattern=10 10;rounded=0;exitX=-0.005;exitY=0.646;exitDx=0;exitDy=0;exitPerimeter=0;entryX=1.003;entryY=0.659;entryDx=0;entryDy=0;entryPerimeter=0;" parent="1" source="FPgmOX6SYPWmQ99vwZZl-94" target="FPgmOX6SYPWmQ99vwZZl-94" edge="1">
          <mxGeometry width="160" relative="1" as="geometry">
            <mxPoint x="360" y="401" as="sourcePoint" />
            <mxPoint x="520" y="400" as="targetPoint" />
          </mxGeometry>
        </mxCell>
        <mxCell id="FPgmOX6SYPWmQ99vwZZl-107" value="status=ok" style="html=1;verticalAlign=bottom;endArrow=open;dashed=1;endSize=8;edgeStyle=elbowEdgeStyle;elbow=vertical;curved=0;rounded=0;entryX=0.002;entryY=0.336;entryDx=0;entryDy=0;entryPerimeter=0;" parent="1" edge="1">
          <mxGeometry x="-0.0024" relative="1" as="geometry">
            <mxPoint x="327" y="356" as="sourcePoint" />
            <mxPoint x="181.034" y="357.05423999999994" as="targetPoint" />
            <mxPoint as="offset" />
          </mxGeometry>
        </mxCell>
        <mxCell id="FPgmOX6SYPWmQ99vwZZl-108" value="fill out questions and submit" style="edgeStyle=none;verticalLabelPosition=top;verticalAlign=bottom;labelPosition=left;align=right;exitX=0.002;exitY=0.534;exitDx=0;exitDy=0;exitPerimeter=0;" parent="1" edge="1">
          <mxGeometry width="100" height="100" as="geometry">
            <mxPoint x="183.034" y="380.6040600000001" as="sourcePoint" />
            <mxPoint x="330" y="380.5" as="targetPoint" />
            <Array as="points" />
            <mxPoint x="56" y="-5" as="offset" />
          </mxGeometry>
        </mxCell>
        <mxCell id="FPgmOX6SYPWmQ99vwZZl-109" value="&lt;br&gt;Else&lt;br&gt;status=no" style="html=1;verticalAlign=bottom;endArrow=open;dashed=1;endSize=8;edgeStyle=elbowEdgeStyle;elbow=vertical;curved=0;rounded=0;entryX=0.002;entryY=0.336;entryDx=0;entryDy=0;entryPerimeter=0;" parent="1" edge="1">
          <mxGeometry x="-0.0024" relative="1" as="geometry">
            <mxPoint x="327" y="427" as="sourcePoint" />
            <mxPoint x="181.034" y="428.05423999999994" as="targetPoint" />
            <mxPoint as="offset" />
          </mxGeometry>
        </mxCell>
        <mxCell id="FPgmOX6SYPWmQ99vwZZl-110" value="request(token)" style="edgeStyle=none;verticalLabelPosition=top;verticalAlign=bottom;labelPosition=left;align=right" parent="1" edge="1">
          <mxGeometry width="100" height="100" as="geometry">
            <mxPoint x="199" y="500" as="sourcePoint" />
            <mxPoint x="324" y="500.5" as="targetPoint" />
            <Array as="points" />
            <mxPoint x="16" y="-7" as="offset" />
          </mxGeometry>
        </mxCell>
        <mxCell id="FPgmOX6SYPWmQ99vwZZl-111" value="request(token)" style="edgeStyle=none;verticalLabelPosition=top;verticalAlign=bottom;labelPosition=left;align=right" parent="1" edge="1">
          <mxGeometry width="100" height="100" as="geometry">
            <mxPoint x="324" y="501" as="sourcePoint" />
            <mxPoint x="470" y="500" as="targetPoint" />
            <Array as="points" />
            <mxPoint x="16" y="-7" as="offset" />
          </mxGeometry>
        </mxCell>
        <mxCell id="FPgmOX6SYPWmQ99vwZZl-112" value="save (token) to DB" style="edgeStyle=none;verticalLabelPosition=top;verticalAlign=bottom;labelPosition=left;align=right" parent="1" edge="1">
          <mxGeometry width="100" height="100" as="geometry">
            <mxPoint x="469" y="511" as="sourcePoint" />
            <mxPoint x="680" y="511" as="targetPoint" />
            <Array as="points" />
            <mxPoint x="16" y="-7" as="offset" />
          </mxGeometry>
        </mxCell>
        <mxCell id="FPgmOX6SYPWmQ99vwZZl-113" value="" style="html=1;points=[];perimeter=orthogonalPerimeter;fillColor=strokeColor;strokeColor=#CC0000;" parent="1" vertex="1">
          <mxGeometry x="323" y="493" width="5" height="17" as="geometry" />
        </mxCell>
        <mxCell id="FPgmOX6SYPWmQ99vwZZl-115" value="" style="edgeStyle=none;endArrow=none;dashed=1" parent="1" target="FPgmOX6SYPWmQ99vwZZl-114" edge="1">
          <mxGeometry x="376.5711805555559" y="339.6971450617284" width="100" height="100" as="geometry">
            <mxPoint x="465.608695652174" y="280" as="sourcePoint" />
            <mxPoint x="466" y="580" as="targetPoint" />
          </mxGeometry>
        </mxCell>
        <mxCell id="FPgmOX6SYPWmQ99vwZZl-114" value="" style="html=1;points=[];perimeter=orthogonalPerimeter;fillColor=strokeColor;strokeColor=#CC0000;" parent="1" vertex="1">
          <mxGeometry x="463" y="496" width="5" height="27" as="geometry" />
        </mxCell>
        <mxCell id="FPgmOX6SYPWmQ99vwZZl-117" value="" style="edgeStyle=none;endArrow=none;dashed=1" parent="1" source="22" target="FPgmOX6SYPWmQ99vwZZl-116" edge="1">
          <mxGeometry x="614.4878472222224" y="174.99999999999997" width="100" height="100" as="geometry">
            <mxPoint x="675" y="110" as="sourcePoint" />
            <mxPoint x="675" y="570" as="targetPoint" />
          </mxGeometry>
        </mxCell>
        <mxCell id="FPgmOX6SYPWmQ99vwZZl-116" value="" style="html=1;points=[];perimeter=orthogonalPerimeter;fillColor=strokeColor;strokeColor=#CC0000;" parent="1" vertex="1">
          <mxGeometry x="675" y="501" width="5" height="17" as="geometry" />
        </mxCell>
        <mxCell id="FPgmOX6SYPWmQ99vwZZl-118" value="send token to user by email" style="html=1;verticalAlign=bottom;endArrow=open;dashed=1;endSize=8;edgeStyle=elbowEdgeStyle;elbow=vertical;curved=0;rounded=0;entryX=0.002;entryY=0.336;entryDx=0;entryDy=0;entryPerimeter=0;" parent="1" edge="1">
          <mxGeometry x="-0.4261" y="-3" relative="1" as="geometry">
            <mxPoint x="473" y="526" as="sourcePoint" />
            <mxPoint x="194.034" y="526.0542399999999" as="targetPoint" />
            <mxPoint as="offset" />
          </mxGeometry>
        </mxCell>
        <mxCell id="FPgmOX6SYPWmQ99vwZZl-119" value="" style="fillColor=#CC4125;strokeColor=#660000" parent="1" vertex="1">
          <mxGeometry x="189" y="152" width="10" height="358" as="geometry" />
        </mxCell>
        <mxCell id="FPgmOX6SYPWmQ99vwZZl-120" value="" style="html=1;points=[];perimeter=orthogonalPerimeter;fillColor=strokeColor;strokeColor=#CC0000;" parent="1" vertex="1">
          <mxGeometry x="191" y="520" width="5" height="11" as="geometry" />
        </mxCell>
      </root>
    </mxGraphModel>
  </diagram>
</mxfile>
